<svg width="44" height="44" viewBox="0 0 44 44" fill="none" xmlns="http://www.w3.org/2000/svg">
<rect width="44" height="44" rx="22" fill=""/>
<mask id="mask0_2188_4371" style="mask-type:alpha" maskUnits="userSpaceOnUse" x="12" y="12" width="20" height="20">
<rect x="12" y="12" width="20" height="20" fill="#D9D9D9"/>
</mask>
<g mask="url(#mask0_2188_4371)">
<path d="M27.4999 19.9792L26.3958 17.5833L23.9999 16.5L26.3958 15.3958L27.4999 13L28.5833 15.3958L30.9791 16.5L28.5833 17.5833L27.4999 19.9792ZM27.4999 30.9792L26.4166 28.5625L23.9999 27.4792L26.4166 26.3958L27.4999 23.9792L28.5833 26.3958L30.9999 27.4792L28.5833 28.5625L27.4999 30.9792ZM19.4999 28.4792L17.4791 24L12.9999 21.9792L17.4791 19.9583L19.4999 15.4792L21.5208 19.9583L25.9999 21.9792L21.5208 24L19.4999 28.4792ZM19.4999 24.8542L20.3958 22.875L22.3749 21.9792L20.3958 21.0833L19.4999 19.1042L18.6041 21.0833L16.6249 21.9792L18.6041 22.875L19.4999 24.8542Z" fill="white"/>
</g>
</svg>
