<svg width="44" height="44" viewBox="0 0 44 44" fill="none" xmlns="http://www.w3.org/2000/svg">
<rect width="44" height="44" rx="22" fill=""/>
<mask id="mask0_2188_4401" style="mask-type:alpha" maskUnits="userSpaceOnUse" x="12" y="12" width="20" height="20">
<rect x="12" y="12" width="20" height="20" fill="#D9D9D9"/>
</mask>
<g mask="url(#mask0_2188_4401)">
<path d="M20.9374 24.5417C21.2569 24.8472 21.6527 24.9896 22.1249 24.9688C22.5972 24.9479 22.9444 24.7708 23.1666 24.4375L27.4999 18L21.0592 22.3388C20.7141 22.5713 20.5277 22.9201 20.4999 23.3854C20.4722 23.8507 20.618 24.2361 20.9374 24.5417ZM22.0208 16C22.8541 16 23.6041 16.1076 24.2708 16.3229C24.9374 16.5382 25.5416 16.8056 26.0833 17.125L24.6458 18.0625C24.2569 17.8819 23.8506 17.7431 23.427 17.6458C23.0034 17.5486 22.5347 17.5 22.0208 17.5C20.214 17.5 18.6754 18.1493 17.4053 19.4479C16.135 20.7465 15.4999 22.2639 15.4999 24C15.4999 24.5278 15.5381 24.9618 15.6145 25.3021C15.6909 25.6424 15.8124 26.0417 15.9791 26.5H27.9999C28.1805 26.0417 28.309 25.6215 28.3854 25.2396C28.4617 24.8576 28.4999 24.4444 28.4999 24C28.4999 23.4167 28.4201 22.8333 28.2604 22.25C28.1006 21.6667 27.868 21.1319 27.5624 20.6458L28.4583 19.2917C28.9444 19.9583 29.3229 20.6944 29.5937 21.5C29.8645 22.3056 29.9999 23.125 29.9999 23.9583C29.9999 24.6667 29.9409 25.2847 29.8229 25.8125C29.7048 26.3403 29.5138 26.8264 29.2499 27.2708C29.111 27.5069 28.934 27.6875 28.7187 27.8125C28.5034 27.9375 28.2638 28 27.9999 28H15.9999C15.7361 28 15.4965 27.9375 15.2812 27.8125C15.0659 27.6875 14.8888 27.5069 14.7499 27.2708C14.4861 26.8264 14.2951 26.3403 14.177 25.8125C14.059 25.2847 13.9999 24.6667 13.9999 23.9583C13.9999 22.8511 14.2117 21.8138 14.6354 20.8466C15.059 19.8794 15.6319 19.0382 16.3541 18.3229C17.0763 17.6076 17.9266 17.0417 18.9049 16.625C19.8832 16.2083 20.9218 16 22.0208 16Z" fill="white"/>
</g>
</svg>
