<svg width="44" height="44" viewBox="0 0 44 44" fill="none" xmlns="http://www.w3.org/2000/svg">
<rect width="44" height="44" rx="22" fill=""/>
<mask id="mask0_2188_4366" style="mask-type:alpha" maskUnits="userSpaceOnUse" x="12" y="12" width="20" height="20">
<rect x="12" y="12" width="20" height="20" fill="#D9D9D9"/>
</mask>
<g mask="url(#mask0_2188_4366)">
<path d="M14 29V15H22V18H30V29H14ZM15.5 27.5H17V26H15.5V27.5ZM15.5 24.3333H17V22.8333H15.5V24.3333ZM15.5 21.1667H17V19.6667H15.5V21.1667ZM15.5 18H17V16.5H15.5V18ZM19 27.5H20.5V26H19V27.5ZM19 24.3333H20.5V22.8333H19V24.3333ZM19 21.1667H20.5V19.6667H19V21.1667ZM19 18H20.5V16.5H19V18ZM22 27.5H28.5V19.5H22V21.1667H23.5V22.6667H22V24.3333H23.5V25.8333H22V27.5ZM25.5 22.6667V21.1667H27V22.6667H25.5ZM25.5 25.8333V24.3333H27V25.8333H25.5Z" fill="white"/>
</g>
</svg>
