<svg width="44" height="44" viewBox="0 0 44 44" fill="none" xmlns="http://www.w3.org/2000/svg">
<rect width="44" height="44" rx="22" fill=""/>
<mask id="mask0_2188_4386" style="mask-type:alpha" maskUnits="userSpaceOnUse" x="12" y="12" width="20" height="20">
<rect x="12" y="12" width="20" height="20" fill="#D9D9D9"/>
</mask>
<g mask="url(#mask0_2188_4386)">
<path d="M20 24.5L21.0625 23.4375L19.625 22L21.0625 20.5625L20 19.5L17.5 22L20 24.5ZM24 24.5L26.5 22L24 19.5L22.9375 20.5625L24.375 22L22.9375 23.4375L24 24.5ZM16.5 29C16.0875 29 15.7344 28.8531 15.4406 28.5594C15.1469 28.2656 15 27.9125 15 27.5V16.5C15 16.0875 15.1469 15.7344 15.4406 15.4406C15.7344 15.1469 16.0875 15 16.5 15H20.0625C20.1736 14.5694 20.4063 14.2118 20.7604 13.9271C21.1146 13.6424 21.5278 13.5 22 13.5C22.4722 13.5 22.8854 13.6424 23.2396 13.9271C23.5938 14.2118 23.8264 14.5694 23.9375 15H27.5C27.9125 15 28.2656 15.1469 28.5594 15.4406C28.8531 15.7344 29 16.0875 29 16.5V27.5C29 27.9125 28.8531 28.2656 28.5594 28.5594C28.2656 28.8531 27.9125 29 27.5 29H16.5ZM16.5 27.5H27.5V16.5H16.5V27.5ZM22 16C22.1444 16 22.2639 15.9528 22.3583 15.8583C22.4528 15.7639 22.5 15.6444 22.5 15.5C22.5 15.3556 22.4528 15.2361 22.3583 15.1417C22.2639 15.0472 22.1444 15 22 15C21.8556 15 21.7361 15.0472 21.6417 15.1417C21.5472 15.2361 21.5 15.3556 21.5 15.5C21.5 15.6444 21.5472 15.7639 21.6417 15.8583C21.7361 15.9528 21.8556 16 22 16Z" fill="white"/>
</g>
</svg>
