<svg width="44" height="44" viewBox="0 0 44 44" fill="none" xmlns="http://www.w3.org/2000/svg">
<rect width="44" height="44" rx="22" fill=""/>
<mask id="mask0_2188_4396" style="mask-type:alpha" maskUnits="userSpaceOnUse" x="12" y="12" width="20" height="20">
<rect x="12" y="12" width="20" height="20" fill="#D9D9D9"/>
</mask>
<g mask="url(#mask0_2188_4396)">
<path d="M17.4941 30C17.0814 30 16.7292 29.8531 16.4375 29.5594C16.1458 29.2656 16 28.9125 16 28.5V20.5C16 20.0875 16.1469 19.7344 16.4406 19.4406C16.7344 19.1469 17.0875 19 17.5 19H18V17C18 15.8933 18.3905 14.95 19.1714 14.17C19.9523 13.39 20.8967 13 22.0047 13C23.1127 13 24.0556 13.39 24.8333 14.17C25.6111 14.95 26 15.8933 26 17V19H26.5C26.9125 19 27.2656 19.1469 27.5594 19.4406C27.8531 19.7344 28 20.0875 28 20.5V28.5C28 28.9125 27.853 29.2656 27.5591 29.5594C27.2652 29.8531 26.9119 30 26.4992 30H17.4941ZM17.5 28.5H26.5V20.5H17.5V28.5ZM22.0044 26C22.4181 26 22.7708 25.8527 23.0625 25.5581C23.3542 25.2635 23.5 24.9093 23.5 24.4956C23.5 24.0819 23.3527 23.7292 23.0581 23.4375C22.7635 23.1458 22.4093 23 21.9956 23C21.5819 23 21.2292 23.1473 20.9375 23.4419C20.6458 23.7365 20.5 24.0907 20.5 24.5044C20.5 24.9181 20.6473 25.2708 20.9419 25.5625C21.2365 25.8542 21.5907 26 22.0044 26ZM19.5 19H24.5V17C24.5 16.3056 24.2569 15.7153 23.7708 15.2292C23.2847 14.7431 22.6944 14.5 22 14.5C21.3056 14.5 20.7153 14.7431 20.2292 15.2292C19.7431 15.7153 19.5 16.3056 19.5 17V19Z" fill="white"/>
</g>
</svg>
