<svg width="44" height="44" viewBox="0 0 44 44" fill="none" xmlns="http://www.w3.org/2000/svg">
<rect width="44" height="44" rx="22" fill=""/>
<mask id="mask0_2188_4381" style="mask-type:alpha" maskUnits="userSpaceOnUse" x="12" y="12" width="20" height="20">
<rect x="12" y="12" width="20" height="20" fill="#D9D9D9"/>
</mask>
<g mask="url(#mask0_2188_4381)">
<path d="M18 19.5H26V18H18V19.5ZM18 26H24V24.5H18V26ZM18 22.75H26V21.25H18V22.75ZM16.5 29C16.0833 29 15.7293 28.854 15.438 28.562C15.146 28.2707 15 27.9167 15 27.5V16.5C15 16.0833 15.146 15.7293 15.438 15.438C15.7293 15.146 16.0833 15 16.5 15H27.5C27.9167 15 28.2707 15.146 28.562 15.438C28.854 15.7293 29 16.0833 29 16.5V27.5C29 27.9167 28.854 28.2707 28.562 28.562C28.2707 28.854 27.9167 29 27.5 29H16.5ZM16.5 27.5H27.5V16.5H16.5V27.5Z" fill="white"/>
</g>
</svg>
