<svg width="44" height="44" viewBox="0 0 44 44" fill="none" xmlns="http://www.w3.org/2000/svg">
<rect width="44" height="44" rx="22" fill=""/>
<mask id="mask0_2188_4391" style="mask-type:alpha" maskUnits="userSpaceOnUse" x="12" y="12" width="20" height="20">
<rect x="12" y="12" width="20" height="20" fill="#D9D9D9"/>
</mask>
<g mask="url(#mask0_2188_4391)">
<path d="M19.6459 30.3333L19.3334 27.7083C19.1945 27.625 19.0417 27.5347 18.875 27.4375C18.7084 27.3402 18.5556 27.25 18.4167 27.1666L15.9792 28.1875L13.625 24.125L15.7084 22.5416V21.4583L13.625 19.875L15.9792 15.8125L18.4167 16.8333C18.5556 16.75 18.7084 16.6597 18.875 16.5625C19.0417 16.4652 19.1945 16.375 19.3334 16.2916L19.6459 13.6666H24.3542L24.6667 16.2916C24.8056 16.375 24.9584 16.4652 25.125 16.5625C25.2917 16.6597 25.4445 16.75 25.5834 16.8333L28.0209 15.8125L30.375 19.875L28.3125 21.4583V22.5416L30.375 24.125L28.0209 28.1875L25.5834 27.1666C25.4445 27.25 25.2917 27.3402 25.125 27.4375C24.9584 27.5347 24.8056 27.625 24.6667 27.7083L24.3542 30.3333H19.6459ZM22 24.9791C22.8195 24.9791 23.5209 24.6875 24.1042 24.1041C24.6875 23.5208 24.9792 22.8194 24.9792 22C24.9792 21.1805 24.6875 20.4791 24.1042 19.8958C23.5209 19.3125 22.8195 19.0208 22 19.0208C21.1806 19.0208 20.4792 19.3125 19.8959 19.8958C19.3125 20.4791 19.0209 21.1805 19.0209 22C19.0209 22.8194 19.3125 23.5208 19.8959 24.1041C20.4792 24.6875 21.1806 24.9791 22 24.9791ZM22 23.2291C21.6667 23.2291 21.3785 23.1076 21.1354 22.8645C20.8924 22.6215 20.7709 22.3333 20.7709 22C20.7709 21.6666 20.8924 21.3784 21.1354 21.1354C21.3785 20.8923 21.6667 20.7708 22 20.7708C22.3334 20.7708 22.6216 20.8923 22.8646 21.1354C23.1077 21.3784 23.2292 21.6666 23.2292 22C23.2292 22.3333 23.1077 22.6215 22.8646 22.8645C22.6216 23.1076 22.3334 23.2291 22 23.2291ZM21.1667 28.5833H22.8334L23.0834 26.4166C23.4861 26.3055 23.875 26.1389 24.25 25.9166C24.625 25.6944 24.9653 25.4305 25.2709 25.125L27.2917 25.9791L28.125 24.6041L26.3542 23.25C26.4236 23.0555 26.4723 22.8541 26.5 22.6458C26.5278 22.4375 26.5417 22.2222 26.5417 22C26.5417 21.8055 26.5278 21.6076 26.5 21.4062C26.4723 21.2048 26.4306 20.993 26.375 20.7708L28.1459 19.3958L27.3125 18.0208L25.2917 18.8958C24.9723 18.5763 24.6285 18.309 24.2604 18.0937C23.8924 17.8784 23.507 17.7152 23.1042 17.6041L22.8334 15.4166H21.1667L20.8959 17.6041C20.4931 17.7152 20.1077 17.8784 19.7396 18.0937C19.3716 18.309 19.0348 18.5694 18.7292 18.875L16.7084 18.0208L15.875 19.3958L17.625 20.75C17.5695 20.9722 17.5278 21.1875 17.5 21.3958C17.4723 21.6041 17.4584 21.8055 17.4584 22C17.4584 22.1944 17.4723 22.3923 17.5 22.5937C17.5278 22.7951 17.5695 23.0069 17.625 23.2291L15.875 24.6041L16.7084 25.9791L18.7292 25.125C19.0348 25.4305 19.3716 25.6909 19.7396 25.9062C20.1077 26.1215 20.4931 26.2847 20.8959 26.3958L21.1667 28.5833Z" fill="white"/>
</g>
</svg>
