<svg width="44" height="44" viewBox="0 0 44 44" fill="none" xmlns="http://www.w3.org/2000/svg">
<rect width="44" height="44" rx="22" fill=""/>
<mask id="mask0_2188_4376" style="mask-type:alpha" maskUnits="userSpaceOnUse" x="12" y="12" width="20" height="20">
<rect x="12" y="12" width="20" height="20" fill="#D9D9D9"/>
</mask>
<g mask="url(#mask0_2188_4376)">
<path d="M13 26.5V25.312C13 24.7707 13.2707 24.3333 13.812 24C14.354 23.6667 15.0833 23.5 16 23.5C16.1807 23.5 16.3543 23.507 16.521 23.521C16.6877 23.535 16.8543 23.5557 17.021 23.583C16.8543 23.833 16.7257 24.104 16.635 24.396C16.545 24.6873 16.5 24.986 16.5 25.292V26.5H13ZM17.5 26.5V25.292C17.5 24.5 17.9027 23.8783 18.708 23.427C19.514 22.9757 20.6113 22.75 22 22.75C23.4027 22.75 24.5033 22.9757 25.302 23.427C26.1007 23.8783 26.5 24.5 26.5 25.292V26.5H17.5ZM27.5 26.5V25.292C27.5 24.972 27.455 24.6697 27.365 24.385C27.2743 24.1003 27.1457 23.833 26.979 23.583C27.1183 23.5557 27.2677 23.535 27.427 23.521C27.587 23.507 27.778 23.5 28 23.5C28.9167 23.5 29.646 23.6667 30.188 24C30.7293 24.3333 31 24.7707 31 25.312V26.5H27.5ZM22 24.25C21.222 24.25 20.6003 24.3193 20.135 24.458C19.6703 24.5973 19.3197 24.778 19.083 25H24.896C24.66 24.764 24.3127 24.58 23.854 24.448C23.396 24.316 22.778 24.25 22 24.25ZM16 22.5C15.5833 22.5 15.2293 22.354 14.938 22.062C14.646 21.7707 14.5 21.4167 14.5 21C14.5 20.5833 14.646 20.2293 14.938 19.938C15.2293 19.646 15.5833 19.5 16 19.5C16.4167 19.5 16.7707 19.646 17.062 19.938C17.354 20.2293 17.5 20.5833 17.5 21C17.5 21.4167 17.354 21.7707 17.062 22.062C16.7707 22.354 16.4167 22.5 16 22.5ZM28 22.5C27.5833 22.5 27.2293 22.354 26.938 22.062C26.646 21.7707 26.5 21.4167 26.5 21C26.5 20.5833 26.646 20.2293 26.938 19.938C27.2293 19.646 27.5833 19.5 28 19.5C28.4167 19.5 28.7707 19.646 29.062 19.938C29.354 20.2293 29.5 20.5833 29.5 21C29.5 21.4167 29.354 21.7707 29.062 22.062C28.7707 22.354 28.4167 22.5 28 22.5ZM22 21.75C21.3747 21.75 20.8433 21.5313 20.406 21.094C19.9687 20.6567 19.75 20.1253 19.75 19.5C19.75 18.8747 19.9687 18.3433 20.406 17.906C20.8433 17.4687 21.3747 17.25 22 17.25C22.6253 17.25 23.1567 17.4687 23.594 17.906C24.0313 18.3433 24.25 18.8747 24.25 19.5C24.25 20.1253 24.0313 20.6567 23.594 21.094C23.1567 21.5313 22.6253 21.75 22 21.75ZM22 18.75C21.792 18.75 21.615 18.823 21.469 18.969C21.323 19.115 21.25 19.292 21.25 19.5C21.25 19.708 21.323 19.885 21.469 20.031C21.615 20.177 21.792 20.25 22 20.25C22.208 20.25 22.385 20.177 22.531 20.031C22.677 19.885 22.75 19.708 22.75 19.5C22.75 19.292 22.677 19.115 22.531 18.969C22.385 18.823 22.208 18.75 22 18.75Z" fill="white"/>
</g>
</svg>
